<?xml version="1.0" encoding="UTF-8"?> <svg xmlns:rdf="http://www.w3.org/1999/02/22-rdf-syntax-ns#" xmlns="http://www.w3.org/2000/svg" xmlns:cc="http://creativecommons.org/ns#" xmlns:dc="http://purl.org/dc/elements/1.1/" id="svg7147" height="150.29mm" width="108.21mm" viewBox="0 0 383.42185 532.52852"><g id="layer1" fill-rule="evenodd" transform="translate(-145.43 -191.81)"><g fill="#26a659"><path id="path5768" d="m458.59 410.63c-34.034-26.908-81.051-20.276-105.04 14.816-23.98 35.077-16.974 81.17 15.647 102.95 32.634 21.776 79.651 15.144 105.04-14.816 25.391-29.947 18.386-76.04-15.647-102.95"></path><path id="path5770" d="m382.21 472.16c-19.415-15.146-46.296-11.363-60.025 8.4639-13.744 19.828-9.7915 45.832 8.8291 58.089 18.605 12.245 45.483 8.4482 60.023-8.4785 14.541-16.926 10.587-42.942-8.827-58.074"></path><path id="path5772" d="m485.91 415.42c-15.882-12.39-37.871-9.2941-49.104 6.925-11.242 16.22-8.0093 37.492 7.2226 47.519 15.22 10.018 37.208 6.9119 49.102-6.935 11.896-13.847 8.6607-35.129-7.2209-47.509"></path><path id="path5774" d="m421.17 377.67c-12.522-9.7689-29.859-7.3282-38.715 5.4596-8.8641 12.788-6.3152 29.56 5.6946 37.465 12 7.8987 29.336 5.45 38.714-5.4674 9.3786-10.917 6.8281-27.697-5.6936-37.457"></path><path id="path5776" d="m352.99 465.38c-9.1618-7.1471-21.846-5.3616-28.327 3.9948-6.4854 9.3569-4.6204 21.628 4.1665 27.412 8.7809 5.7788 21.465 3.9872 28.326-4.0008 6.8626-7.988 4.9964-20.265-4.1653-27.406"></path><path id="path5778" d="m516.56 444.54c-13.565-10.582-32.344-7.9385-41.937 5.9134-9.6019 13.853-6.841 32.02 6.1684 40.584 12.999 8.5556 31.777 5.9028 41.936-5.923 10.159-11.825 7.3963-30.002-6.167-40.574"></path><path id="path5780" d="m486.99 479.37c-17.614-13.742-42.001-10.308-54.458 7.6791-12.469 17.989-8.8832 41.581 8.0101 52.701 16.88 11.11 41.265 7.6649 54.456-7.6919 13.192-15.356 9.6051-38.96-8.0084-52.688"></path><path id="path5782" d="m519.71 494.46c-7.7645-6.0576-18.513-4.5446-24.004 3.3839-5.4958 7.9295-3.9153 18.328 3.5306 23.23 7.4402 4.8976 18.188 3.3792 24.003-3.3902 5.8151-6.7688 4.2338-17.173-3.5296-23.223"></path></g><path id="path5784" d="m352.83 681.94c65.75 0 119.07 9.4935 119.07 21.201 0 11.707-53.321 21.201-119.07 21.201s-119.07-9.4939-119.07-21.201c0-11.708 53.321-21.201 119.07-21.201" fill-opacity=".25" fill="#003d26"></path><path id="path5786" d="m439.95 317.1c-46.862-49.7-122.07-50.499-167.95-1.7745-45.886 48.709-45.886 121.78 0 163.2 45.885 41.42 121.09 42.219 167.95 1.7745 46.877-40.428 46.877-113.5 0-163.2" fill="#26a659"></path><path id="path5788" d="m369.76 419.47h-35.963l1.5742 154.12-12.205 127.07h57.225l-10.05-129.23-0.59-151.96z" fill="#806942"></path><g fill="#26a659"><path id="path5790" d="m482.22 297c-20.001-21.15-52.089-21.502-71.659-0.76788-19.585 20.734-19.585 51.826 0 69.459 19.57 17.616 51.658 17.952 71.659 0.7515 20.001-17.201 20.001-48.31 0-69.442"></path><path id="path5792" d="m430.53 392.42c-20.001-21.15-52.089-21.502-71.659-0.76788-19.585 20.734-19.585 51.826 0 69.459 19.57 17.616 51.658 17.952 71.659 0.75162 20.001-17.201 20.001-48.31 0-69.442"></path><path id="path5794" d="m440.84 255.16c-13.763-14.554-35.844-14.796-49.31-0.52862-13.477 14.268-13.477 35.663 0 47.797 13.466 12.122 35.547 12.353 49.31 0.51687 13.764-11.837 13.764-33.242 0-47.785"></path><path id="path5796" d="m256.89 285.44c-10.545-11.151-27.463-11.336-37.781-0.405-10.326 10.932-10.326 27.325 0 36.621 10.318 9.2884 27.236 9.4655 37.781 0.39612 10.546-9.0684 10.546-25.47 0-36.612"></path><path id="path5798" d="m507.7 340.96c-6.4965-6.8701-16.92-6.9841-23.277-0.24938-6.3614 6.7344-6.3614 16.835 0 22.562 6.3569 5.7224 16.78 5.8316 23.277 0.2445 6.4972-5.5875 6.4972-15.692 0-22.557"></path><path id="path5800" d="m199.08 474.3c-7.2804-7.6975-18.959-7.8254-26.082-0.27887-7.128 7.5466-7.128 18.863 0 25.28 7.1231 6.4119 18.802 6.5341 26.082 0.27313 7.2793-6.2599 7.2793-17.582 0-25.275"></path><path id="path5802" d="m495.2 362.46c-11.311-11.961-29.459-12.16-40.526-0.43412-11.076 11.725-11.076 29.31 0 39.281 11.067 9.9628 29.215 10.153 40.526 0.42525 11.312-9.7279 11.312-27.321 0-39.273"></path><path id="path5804" d="m321.48 254.69c-13.959-14.761-36.354-15.006-50.011-0.53575-13.669 14.47-13.669 36.17 0 48.475 13.657 12.295 36.052 12.53 50.011 0.52475 13.959-12.004 13.959-33.715 0-48.464"></path><path id="path5806" d="m235.83 358.14c-12.697-13.426-33.068-13.65-45.491-0.48712-12.434 13.163-12.434 32.901 0 44.095 12.423 11.183 32.794 11.397 45.491 0.47738 12.698-10.92 12.698-30.668 0-44.085"></path><path id="path5808" d="m228.77 412.45c-17.32-18.315-45.109-18.62-62.055-0.66475-16.961 17.955-16.961 44.881 0 60.15 16.947 15.256 44.735 15.546 62.055 0.65088 17.321-14.896 17.321-41.835 0-60.137"></path><path id="path5810" d="m476.62 259.57c-9.6292-10.183-25.079-10.352-34.5-0.3685-9.4287 9.9811-9.4287 24.951 0 33.439 9.4208 8.4812 24.87 8.6435 34.5 0.36213 9.6285-8.2814 9.6285-23.258 0-33.432"></path><path id="path5812" d="m271.86 463.54c-19.831-20.97-51.646-21.318-71.049-0.76075-19.419 20.557-19.419 51.385 0 68.867 19.403 17.466 51.218 17.8 71.049 0.74512 19.831-17.054 19.831-47.898 0-68.852"></path><path id="path5814" d="m449.5 313.05c6.5259 6.9006 16.998 7.0158 23.385 0.24912 6.3913-6.7652 6.3913-16.912 0-22.666-6.3863-5.7486-16.859-5.8585-23.385-0.24588-6.5277 5.614-6.5277 15.766 0 22.663"></path><path id="path5816" d="m407.08 223.69c-25.897-27.736-67.442-28.186-92.802-0.98675-25.359 27.185-25.359 67.984 0 91.105 25.361 23.121 66.906 23.557 92.802 0.98675 25.897-22.569 25.897-63.369 0-91.105"></path><path id="path5818" d="m308.27 315.13c-23.212-24.874-60.452-25.265-83.183-0.89787-22.718 24.38-22.718 60.937 0 81.662 22.731 20.725 59.97 21.128 83.183 0.89825 23.213-20.244 23.213-56.8 0-81.662"></path><path id="path5820" d="m349.94 395.91c-33.959-36.384-88.446-36.96-121.7-1.311-33.239 35.664-33.239 89.153 0 119.48 33.256 30.325 87.743 30.901 121.7 1.295 33.959-29.606 33.959-83.078 0-119.46"></path></g><g fill="#806942"><path id="path5822" d="m419.56 702.55-53.901-26.139-26.062 24.526 79.963 1.6132z"></path><path id="path5824" d="m271.9 704.81 60.221-26.139 5.9451 22.994-66.166 3.1458z"></path><path id="path5826" d="m346.78 714.74-22.137-24.526 39.968 5.8085-17.831 18.717z"></path></g><g fill="#36b357"><path id="path5828" d="m440.1 332.58c-3.7398-3.5019-10.132-12.329-13.932-14.607-4.5648-2.7358-10.576-1.2309-13.312 3.3329-2.7365 4.5641-1.231 10.574 3.3334 13.31 5.4518 3.2676 19.053 0.30825 23.91-2.036"></path><path id="path5830" d="m451.23 301.1c-6.3633-1.9315-18.868-8.5432-24.6-9.0152-6.8838-0.56763-13.018 4.6325-13.586 11.515-0.56708 6.8829 4.6332 13.016 11.517 13.583 8.2215 0.67825 22.358-10.569 26.668-16.083"></path><path id="path5832" d="m424.07 270.34c-6.2084 2.3819-20.139 4.8416-24.952 7.9874-5.7813 3.7786-7.4303 11.649-3.6508 17.43 3.7792 5.7806 11.65 7.4289 17.432 3.6504 6.9058-4.5131 11.156-22.069 11.172-29.067"></path><path id="path5834" d="m394.32 253.92c-3.4375 5.6912-12.922 16.185-14.789 21.624-2.2426 6.5321 1.2892 13.755 7.8222 15.998 6.5329 2.2422 13.758-1.289 16-7.8208 2.6788-7.8016-4.7477-24.268-9.0335-29.801"></path><path id="path5836" d="m355.68 262.82c5.2395 1.9548 16.972 3.9154 21.043 6.5242 4.8904 3.1326 6.3378 9.7378 3.2047 14.628-3.1331 4.8901-9.7395 6.3365-14.63 3.2039-5.8416-3.7418-9.5512-18.471-9.6182-24.356"></path><path id="path5838" d="m345.36 307.74c4.8983-1.5856 14.486-6.8808 18.915-7.3284 5.3214-0.53637 10.144 3.4016 10.681 8.7219 0.53695 5.3202-3.402 10.142-8.7227 10.68-6.3558 0.64062-17.459-7.8654-20.874-12.073"></path></g><g fill="#52ba6e"><path id="path5840" d="m358.81 284.24c4.4525 2.5438 14.781 6.0524 18.081 9.0145 3.9634 3.5579 4.2961 9.7499 0.73785 13.713-3.5584 3.9632-9.7512 4.2956-13.715 0.73775-4.7336-4.2499-5.914-18.129-5.1042-23.465"></path><path id="path5842" d="m423.85 285.49c-1.0734 6.5611-0.65697 20.699-2.7613 26.05-2.5285 6.4269-9.9014 9.6371-16.33 7.11-6.428-2.5279-9.6381-9.9-7.1106-16.327 3.0193-7.6762 19.351-15.398 26.201-16.832"></path><path id="path5844" d="m394.73 288.66c2.089 6.3121 9.0098 18.648 9.6235 24.364 0.73823 6.867-4.3082 13.128-11.175 13.865-6.8683 0.73775-13.129-4.308-13.868-11.174-0.881-8.2012 10.013-22.611 15.42-27.055"></path></g><g fill="#36b357"><path id="path5846" d="m422.48 266.49c3.2578 1.8079 10.793 4.2655 13.218 6.3879 2.9108 2.5499 3.2082 7.0456 0.65809 9.956-2.5499 2.9112-7.0466 3.2085-9.9574 0.65875-3.4772-3.0455-4.4585-13.119-3.9184-17.003"></path><path id="path5848" d="m441.79 251.77c2.7556 3.9731 10.119 11.156 11.723 15.017 1.9264 4.6381-0.3063 10.043-4.9451 11.969-4.6389 1.9269-10.044-0.30613-11.971-4.9442-2.301-5.54 2.3354-17.83 5.1929-22.042"></path><path id="path5850" d="m469.14 263.71c-0.26579 4.8281 1.1354 15.018 0.0298 19.05-1.3278 4.8434-6.4089 7.7382-11.254 6.4105-4.8443-1.3276-7.7394-6.4084-6.411-11.252 1.5855-5.7848 12.793-12.639 17.635-14.209"></path><path id="path5852" d="m487.14 280.64c-3.1746 3.6471-8.3266 12.55-11.676 15.054-4.0219 3.0075-9.8108 2.1728-12.819-1.8492-3.0084-4.022-2.1727-9.8092 1.8499-12.818 4.8043-3.5914 17.859-2.1206 22.645-0.38687"></path><path id="path5854" d="m489.59 309.38c-2.5207-3.1908-6.4927-10.874-9.2062-13.111-3.2581-2.6869-8.1532-2.2168-10.841 1.0414-2.6872 3.2584-2.2174 8.1531 1.0419 10.84 3.8914 3.2092 14.916 2.4949 19.005 1.2299"></path><path id="path5856" d="m460.79 326.53c0.006-3.7435 1.5366-11.559 0.85899-14.725-0.81436-3.8022-4.6152-6.2628-8.4183-5.4489-3.8033 0.81325-6.264 4.6145-5.4496 8.4165 0.97202 4.5418 9.3351 10.332 13.009 11.757"></path></g><g fill="#52ba6e"><path id="path5858" d="m474.05 311.98c-2.7528-2.5146-7.4834-8.8816-10.269-10.506-3.3471-1.9506-7.7078-0.8015-9.6582 2.5451-1.9505 3.346-0.80161 7.706 2.5447 9.6559 3.9974 2.3298 13.869 0.0542 17.383-1.6955"></path><path id="path5860" d="m458.7 267.24c-4.3036 2.205-14.184 5.067-17.42 7.7156-3.8862 3.1822-4.4659 9.0004-1.2836 12.887 3.182 3.8852 9.0019 4.4652 12.888 1.283 4.642-3.7998 6.3495-16.824 5.8158-21.885"></path><path id="path5862" d="m463 288.11c-4.8359-0.0398-14.918-2.081-19.013-1.2324-4.9184 1.0198-8.1288 5.9074-7.1092 10.825 1.0196 4.9181 5.908 8.1276 10.826 7.1082 5.8742-1.2171 13.423-11.969 15.295-16.701"></path></g><g fill="#36b357"><path id="path5864" d="m322.46 303.65c-5.0836-0.641-15.44-4.0372-19.855-3.6521-5.3015 0.46387-9.2852 5.2094-8.8216 10.511 0.46356 5.3009 5.2101 9.2839 10.512 8.8204 6.3325-0.55375 15.608-10.931 18.165-15.679"></path><path id="path5866" d="m312.99 271.63c-6.2856 2.1699-20.292 4.1556-25.209 7.1355-5.9066 3.5809-7.8216 11.39-4.2414 17.296 3.5811 5.9056 11.392 7.8204 17.298 4.2399 7.0542-4.276 11.899-21.677 12.152-28.671"></path><path id="path5868" d="m272.95 262.66c-3.6285 5.5715-13.464 15.737-15.515 21.109-2.4634 6.4524 0.82212 13.792 7.2746 16.254 6.4533 2.4638 13.793-0.82087 16.257-7.2729 2.942-7.706-3.9209-24.415-8.0169-30.09"></path><path id="path5870" d="m239.22 266.82c0.55708 6.6259-0.96214 20.688 0.71835 26.186 2.0178 6.6051 9.1178 10.382 15.724 8.3632 6.6053-2.0182 10.382-9.1172 8.3638-15.721-2.4106-7.8891-18.089-16.864-24.806-18.828"></path><path id="path5872" d="m213.15 296.7c5.3891-1.4911 16.04-6.7886 20.868-7.0658 5.7981-0.33313 10.847 4.1655 11.18 9.963 0.33305 5.798-4.1665 10.846-9.9653 11.179-6.9256 0.39825-18.574-9.3505-22.083-14.076"></path><path id="path5874" d="m231.17 339.13c3.0353-4.1589 7.6893-14.072 11.014-17.033 3.9932-3.5571 10.21-3.1986 13.767 0.79438 3.5574 3.9922 3.1991 10.208-0.79412 13.765-4.7693 4.2481-18.752 3.8768-23.987 2.474"></path></g><g fill="#52ba6e"><path id="path5876" d="m228.27 312.21c5.0978-0.55313 15.52-3.7734 19.931-3.3112 5.2978 0.55525 9.2019 5.373 8.6462 10.67-0.5557 5.2969-5.3735 9.2005-10.671 8.6449-6.327-0.66325-15.429-11.208-17.906-16.003"></path><path id="path5878" d="m281.66 275.06c2.9824 5.9421 11.618 17.145 13.055 22.712 1.7255 6.6874-2.3602 13.613-9.0478 15.339-6.6882 1.7252-13.615-2.3594-15.341-9.0468-2.061-7.9872 6.6291-23.823 11.334-29.004"></path><path id="path5880" d="m259.94 294.71c5.3961 3.8849 18.241 9.8117 22.093 14.08 4.6282 5.1265 4.2165 13.157-0.91038 17.784-5.1276 4.6269-13.159 4.2162-17.787-0.911-5.528-6.1225-5.1651-24.182-3.3964-30.954"></path></g><g fill="#36b357"><path id="path5882" d="m430 270.04c-4.4131-2.6022-12.576-9.8235-16.781-11.218-5.052-1.6749-10.59 1.1045-12.265 6.1548-1.6751 5.0514 1.1043 10.588 6.156 12.264 6.033 2.0005 18.662-3.8534 22.891-7.2"></path><path id="path5884" d="m417.2 247.77c-6.3378-2.0112-18.758-8.78-24.483-9.3242-6.8761-0.65413-13.076 4.4678-13.73 11.342-0.65372 6.875 4.4684 13.074 11.345 13.728 8.2124 0.78063 22.49-10.286 26.868-15.746"></path><path id="path5886" d="m392.83 201.36c-5.54 3.6782-18.599 9.1158-22.611 13.236-4.8182 4.9475-4.7112 12.988 0.23741 17.806 4.9493 4.8174 12.991 4.7104 17.808-0.23788 5.7551-5.9095 6.0755-23.97 4.5648-30.804"></path><path id="path5888" d="m360.22 191.81c-2.1142 6.3042-9.082 18.613-9.7185 24.328-0.76473 6.8638 4.2582 13.144 11.123 13.908 6.8644 0.76388 13.146-4.2576 13.91-11.121 0.91226-8.1979-9.9262-22.649-15.315-27.115"></path><path id="path5890" d="m324.44 208.92c5.5393 0.76575 17.417 0.12225 21.96 1.7798 5.4564 1.9914 8.3092 8.122 6.3171 13.577-1.9909 5.4556-8.1228 8.3074-13.579 6.316-6.5163-2.3779-13.349-15.944-14.698-21.673"></path><path id="path5892" d="m324.16 255.01c4.4344-2.6156 12.636-9.8734 16.862-11.276 5.0765-1.6841 10.642 1.108 12.326 6.1838 1.684 5.0755-1.1085 10.64-6.1844 12.323-6.0624 2.0115-18.754-3.8694-23.004-7.2316"></path><path id="path5894" d="m310.8 222.31c3.9712 1.2252 12.76 2.1752 15.893 3.9355 3.7632 2.1136 5.1208 6.952 3.0066 10.715-2.1138 3.7619-6.953 5.1194-10.716 3.0058-4.4949-2.5246-7.881-13.294-8.1837-17.657"></path><path id="path5896" d="m413.39 222.42c-4.1508 5.1945-10.715 17.723-15.172 21.356-5.3529 4.365-13.353 3.5518-17.719-1.8008-4.3646-5.3525-3.5513-13.351 1.8012-17.716 6.3938-5.2126 24.415-3.9451 31.09-1.8394"></path><path id="path5898" d="m450.22 247.36c-5.1521 2.0399-15.084 8.3856-19.811 9.17-5.6776 0.94288-11.128-2.9548-12.07-8.6311-0.943-5.677 2.9552-11.126 8.6331-12.069 6.7807-1.1252 19.29 7.2457 23.247 11.53"></path></g><g fill="#249957"><path id="path5900" d="m501.35 405.98c-3.311 3.91-8.6416 13.415-12.154 16.116-4.219 3.2446-10.364 2.4428-13.608-1.7755-3.2447-4.2176-2.4431-10.361 1.7759-13.606 5.0386-3.8746 18.891-2.5034 23.986-0.73525"></path><path id="path5902" d="m496.59 431.23c-5.3229 3.9859-14.823 14.464-20.05 16.863-6.2771 2.8798-13.817 0.084-16.698-6.193-2.8814-6.2762-0.0854-13.815 6.1921-16.696 7.4983-3.4405 24.623 2.3116 30.556 6.0258"></path><path id="path5904" d="m488.86 483.07c-6.4415-1.6498-20.563-2.4864-25.707-5.0559-6.179-3.0866-8.7241-10.715-5.6374-16.892 3.0866-6.1775 10.715-8.7232 16.894-5.6364 7.3803 3.6865 13.628 20.635 14.451 27.585"></path><path id="path5906" d="m461.2 502.82c-4.0712-5.2568-14.703-14.587-17.185-19.773-2.981-6.2299-0.30629-13.812 5.9245-16.794 6.2308-2.981 13.814-0.3065 16.796 5.923 3.5609 7.4409-1.9161 24.654-5.535 30.644"></path><path id="path5908" d="m421.79 498.44c4.9783-2.5462 16.406-5.8471 20.15-8.9075 4.4968-3.6766 5.1715-10.404 1.4955-14.9-3.677-4.4954-10.405-5.1708-14.902-1.4949-5.371 4.3905-7.3563 19.45-6.7436 25.302"></path><path id="path5910" d="m406.36 455.01c5.0488 1.0105 15.183 5.1654 19.635 5.0977 5.3469-0.0798 9.6835-4.5481 9.6026-9.895-0.08-5.3465-4.5488-9.6821-9.8964-9.6014-6.387 0.0954-16.435 9.8256-19.341 14.399"></path><path id="path5912" d="m404.5 490.28c3.3461-2.464 11.333-6.2532 13.712-8.9461 2.8578-3.2355 2.5472-8.2506-0.68785-11.108-3.2354-2.857-8.2518-2.5465-11.109 0.68812-3.4135 3.8636-3.0662 15.147-1.9151 19.366"></path><path id="path5914" d="m501.34 456.42c-5.6298-3.5384-15.953-13.209-21.357-15.173-6.4923-2.3602-13.779 1.0418-16.139 7.5316-2.3598 6.491 1.0419 13.777 7.5327 16.136 7.7542 2.8184 24.353-4.3098 29.963-8.4951"></path><path id="path5916" d="m527.91 420.74c-5.5362-0.231-17.003-2.9548-21.725-2.1401-5.671 0.97862-9.5346 6.4526-8.5557 12.123 0.97914 5.6708 6.4535 9.5332 12.125 8.5546 6.7733-1.169 15.83-13.19 18.155-18.538"></path><path id="path5918" d="m418.08 399.26c-4.0656 1.6349-11.893 6.6986-15.628 7.3404-4.486 0.76962-8.8141-2.289-9.5845-6.7745-0.77049-4.4858 2.2892-8.8129 6.775-9.5832 5.3579-0.92012 15.289 5.6464 18.437 9.0174"></path><path id="path5920" d="m404.4 416.46c-5.6173 0.8905-16.987 5.0248-21.899 4.7534-5.8987-0.326-10.486-5.451-10.159-11.349 0.32679-5.8975 5.4514-10.485 11.35-10.158 7.0451 0.38975 17.703 11.576 20.708 16.753"></path><path id="path5922" d="m377.85 452.58c-4.214-3.8194-14.562-10.088-17.427-14.085-3.4419-4.8008-2.3227-11.586 2.4792-15.028 4.8014-3.4406 11.588-2.3212 15.03 2.4789 4.1108 5.7345 2.0707 21.049-0.0819 26.634"></path><path id="path5924" d="m349.05 456.48c-0.98052-5.6009-5.298-16.902-5.1052-21.816 0.23216-5.9021 5.2831-10.57 11.186-10.338 5.9032 0.23237 10.572 5.282 10.34 11.184-0.27754 7.0494-11.292 17.884-16.421 20.97"></path><path id="path5926" d="m320.98 437.44c4.7817 0.0614 14.745 2.1252 18.798 1.305 4.8692-0.98612 8.0658-5.806 7.0799-10.674-0.98626-4.8685-5.8066-8.0642-10.675-7.0789-5.8154 1.1775-13.33 11.776-15.202 16.448"></path><path id="path5928" d="m326.65 398.43c3.4159 2.7794 9.4233 9.9659 12.817 11.692 4.0776 2.0732 9.1413 0.42375 11.215-3.6524 2.0739-4.0766 0.42456-9.1404-3.6525-11.214-4.8696-2.4765-16.355 0.87375-20.379 3.1734"></path><path id="path5930" d="m311.17 424.37c3.5147-0.5275 11.069-0.20687 13.944-1.2944 3.4531-1.3068 5.2207-5.2242 3.9141-8.6768-1.3062-3.4526-5.225-5.22-8.6784-3.9132-4.124 1.5601-8.3652 10.234-9.1795 13.884"></path><path id="path5932" d="m397.94 437.41c-2.8453-4.9239-6.7942-16.359-10.098-20.002-3.9683-4.3756-10.838-4.7119-15.215-0.74337-4.3755 3.9678-4.7122 10.837-0.74348 15.213 4.7399 5.2254 20.142 6.4591 26.056 5.5322"></path><path id="path5934" d="m432.28 421.02c-4.0956-2.3839-11.683-9.0212-15.579-10.29-4.681-1.5225-9.7888 1.0765-11.312 5.7565-1.5231 4.6804 1.0763 9.787 5.7569 11.311 5.59 1.8188 17.24-3.6606 21.134-6.777"></path><path id="path5936" d="m499.5 494.4c-4.6612 2.1274-13.533 8.4579-17.862 9.4056-5.1988 1.1389-10.416-2.2032-11.555-7.4012-1.1385-5.198 2.2039-10.415 7.4027-11.554 6.2091-1.3599 18.158 5.7799 22.014 9.5492"></path><path id="path5938" d="m484.44 515.22c-6.5136 1.3394-19.574 6.7745-25.324 6.7185-6.907-0.0674-12.538-5.8082-12.47-12.714 0.067-6.9055 5.8087-12.536 12.716-12.468 8.2493 0.0804 21.293 12.577 25.079 18.464"></path><path id="path5940" d="m455.36 558.83c-5.1255-4.236-17.545-11.006-21.105-15.522-4.2756-5.4238-3.3294-13.409 2.0952-17.684 5.4248-4.275 13.411-3.329 17.687 2.0951 5.1062 6.4782 3.5395 24.473 1.3229 31.111"></path><path id="path5942" d="m421.93 564.92c-1.4437-6.4902-7.0886-19.459-7.1249-25.209-0.0435-6.9059 5.607-12.627 12.514-12.671 6.907-0.0436 12.63 5.6061 12.673 12.512 0.0521 8.2481-12.236 21.489-18.062 25.368"></path><path id="path5944" d="m388.13 544.17c5.5889-0.18363 17.334 1.6965 22.025 0.52187 5.6343-1.4109 9.111-7.2102 7.7-12.844-1.4112-5.6335-7.2114-9.1099-12.846-7.6989-6.7293 1.6851-14.941 14.464-16.88 20.021"></path><path id="path5946" d="m392.67 498.3c4.1373 3.0639 11.536 11.139 15.593 12.974 4.8723 2.2046 10.699 0.009 12.904-4.8632 2.2049-4.8716 0.009-10.697-4.8639-12.902-5.8192-2.633-19.055 1.8911-23.633 4.7912"></path><path id="path5948" d="m375.97 529.43c4.0771-0.804 12.917-0.83163 16.217-2.255 3.9637-1.7096 5.8189-6.3796 4.109-10.342-1.7099-3.9629-6.3805-5.8181-10.344-4.1085-4.7338 2.042-9.2256 12.398-9.9822 16.706"></path><path id="path5950" d="m478.01 540.03c-3.586-5.5994-8.8064-18.745-12.859-22.824-4.8681-4.899-12.91-4.9252-17.81-0.0577-4.8999 4.8674-4.9262 12.908-0.058 17.807 5.8143 5.8519 23.87 6.4715 30.728 5.0744"></path><path id="path5952" d="m517.24 519.06c-4.9102-2.566-14.125-9.9141-18.744-11.188-5.5483-1.5296-11.375 1.7781-12.905 7.3251-1.5302 5.5474 1.7779 11.374 7.3262 12.904 6.6262 1.827 19.941-5.193 24.323-9.0408"></path><path id="path5954" d="m172.48 426.61c3.1777 4.0189 8.1862 13.698 11.607 16.515 4.107 3.3839 10.275 2.7886 13.659-1.3181 3.3844-4.107 2.7894-10.274-1.3187-13.658-4.9057-4.0411-18.796-3.1351-23.947-1.5389"></path><path id="path5956" d="m176.38 452c5.1864 4.1616 14.33 14.953 19.473 17.526 6.1775 3.0898 13.807 0.54738 16.897-5.6292 3.0903-6.1764 0.54758-13.805-5.63-16.894-7.3778-3.69-24.686 1.485-30.74 4.9978"></path><path id="path5958" d="m182.37 504.08c6.4929-1.433 20.634-1.7958 25.862-4.1914 6.2793-2.8782 9.0785-10.416 6.2002-16.694-2.8779-6.278-10.417-9.0776-16.696-6.2-7.4994 3.4374-14.312 20.167-15.367 27.085"></path><path id="path5960" d="m209.35 524.74c4.2451-5.1176 15.184-14.086 17.838-19.187 3.1888-6.1261 0.76935-13.794-5.3579-16.982-6.1269-3.1885-13.796-0.7695-16.985 5.3569-3.8082 7.3172 1.089 24.704 4.5049 30.812"></path><path id="path5962" d="m248.89 521.68c-4.8901-2.7114-16.201-6.3932-19.84-9.578-4.371-3.8242-4.8199-10.571-0.99514-14.941 3.8255-4.3704 10.573-4.82 14.944-0.995 5.2201 4.568 6.6996 19.685 5.8912 25.514"></path><path id="path5964" d="m265.77 478.79c-5.08 0.84075-15.347 4.653-19.795 4.4365-5.342-0.25937-9.5255-4.8706-9.2661-10.211 0.25979-5.3412 4.8713-9.5249 10.213-9.2655 6.3799 0.3105 16.096 10.372 18.848 15.04"></path><path id="path5966" d="m266.44 514.11c-3.2621-2.5742-11.117-6.6295-13.404-9.4008-2.7475-3.329-2.2691-8.3314 1.0603-11.078 3.3295-2.7475 8.3322-2.2685 11.08 1.0598 3.282 3.9756 2.5555 15.241 1.2644 19.42"></path><path id="path5968" d="m170.79 477.02c5.7448-3.348 16.387-12.666 21.854-14.448 6.567-2.1412 13.736 1.5024 15.877 8.0681 2.1412 6.5661-1.5028 13.734-8.0699 15.875-7.8435 2.5569-24.195-5.1242-29.661-9.495"></path><path id="path5970" d="m145.43 440.47c5.5403-0.0447 17.092-2.3829 21.785-1.4102 5.6349 1.1681 9.3124 6.7691 8.144 12.403-1.1684 5.6346-6.7695 9.3115-12.405 8.1432-6.7308-1.395-15.379-13.714-17.524-19.136"></path><path id="path5972" d="m342.44 463.97c-3.4474 0.72313-10.354 3.6298-13.4 3.6131-3.6586-0.0213-6.6538-3.0505-6.6326-6.7082 0.0205-3.6584 3.0502-6.6529 6.7084-6.632 4.3702 0.0249 11.306 6.6171 13.324 9.7271"></path><path id="path5974" d="m329.2 475.66c-4.5712-0.0844-14.15 1.5899-17.998 0.68425-4.6225-1.0871-7.5323-5.7874-6.4447-10.409 1.0872-4.6208 5.7881-7.5306 10.411-6.4431 5.5202 1.299 12.382 11.649 14.032 16.168"></path><path id="path5976" d="m303.11 500.52c-2.7983-3.6145-10.106-10.03-11.812-13.596-2.0487-4.2835-0.2084-9.496 4.0747-11.544 4.2841-2.0488 9.4974-0.20875 11.546 4.0744 2.4474 5.1151-1.3201 16.948-3.8092 21.065"></path><path id="path5978" d="m279.77 499.56c0.0113-4.5709-1.8162-14.12-0.97238-17.982 1.0128-4.6386 5.6662-7.6231 10.305-6.6101 4.6395 1.0134 7.6238 5.6665 6.6111 10.305-1.2103 5.54-11.451 12.566-15.944 14.288"></path><path id="path5980" d="m260.24 480.54c3.7763 0.72075 11.37 3.7541 14.693 3.6744 3.9921-0.0956 7.1996-3.4604 7.1032-7.4519-0.0958-3.9912-3.461-7.1979-7.4527-7.1022-4.7678 0.1145-12.204 7.4462-14.344 10.88"></path><path id="path5982" d="m270.2 450.47c2.3123 2.6794 6.0557 9.2119 8.4996 11.054 2.9349 2.2142 7.1748 1.6208 9.3882-1.3135 2.2146-2.9352 1.621-7.1741-1.3141-9.3876-3.5055-2.6444-13.065-1.6076-16.574-0.35325"></path><path id="path5984" d="m254.3 468.82c2.8553 0.0758 8.789 1.3914 11.217 0.935 2.9163-0.5485 4.8657-3.4005 4.3167-6.3166-0.54783-2.9154-3.401-4.8646-6.3175-4.3165-3.4829 0.65525-8.0586 6.923-9.2164 9.6981"></path><path id="path5986" d="m321.14 491.34c-1.56-4.2966-3.0771-13.901-5.1789-17.248-2.5257-4.0206-7.9151-5.2519-11.937-2.7269-4.0212 2.5252-5.2524 7.9139-2.7274 11.934 3.0166 4.8019 15.032 7.9427 19.843 8.0409"></path><path id="path5988" d="m350.62 483.19c-2.9059-2.4622-7.9768-8.781-10.883-10.333-3.4899-1.8631-7.8974-0.5245-9.7614 2.965-1.8634 3.4898-0.52445 7.8966 2.9662 9.76 4.1686 2.2256 14.158-0.47337 17.678-2.3924"></path><path id="path5990" d="m279.92 445.75c-3.7993-2.0168-12.551-4.6895-15.394-7.0872-3.4155-2.88-3.8563-8.0625-0.97588-11.478 2.8804-3.415 8.0639-3.8562 11.479-0.97625 4.0793 3.4399 5.4303 15.046 4.8908 19.541"></path><path id="path5992" d="m258.36 446.36c-4.2217-3.6529-14.516-9.5719-17.418-13.43-3.485-4.6336-2.5391-11.318 2.095-14.802 4.6346-3.4848 11.319-2.5391 14.805 2.0949 4.163 5.5342 2.5051 20.607 0.51882 26.137"></path><path id="path5994" d="m214.45 449.28c0.2024-5.5782-1.6359-17.309-0.44719-21.988 1.4277-5.6194 7.2296-9.0701 12.85-7.6429 5.62 1.4272 9.0718 7.229 7.644 12.849-1.7052 6.7118-14.493 14.865-20.047 16.782"></path><path id="path5996" d="m193.31 430.13c3.5849-4.2789 9.3389-14.666 13.15-17.629 4.5771-3.5589 11.276-2.7205 14.836 1.857 3.5588 4.5772 2.7203 11.275-1.8573 14.834-5.4678 4.2499-20.568 2.8346-26.129 0.9375"></path><path id="path5998" d="m189.85 397.02c2.9789 3.628 7.7297 12.411 10.909 14.934 3.8199 3.0306 9.4602 2.3822 12.491-1.4371 3.0311-3.8186 2.3825-9.4578-1.437-12.488-4.562-3.6206-17.271-2.5572-21.963-1.0085"></path><path id="path6000" d="m222.73 376.6c0.0736 4.3208-1.5225 13.375-0.67272 17.015 1.0224 4.3714 5.4629 7.1289 9.8349 6.1072 4.3722-1.0219 7.1301-5.462 6.1084-9.833-1.2208-5.2208-10.999-11.723-15.271-13.289"></path><path id="path6002" d="m193.46 381.39c2.6189 2.3039 7.1558 8.1769 9.7909 9.647 3.1643 1.7656 7.223 0.61375 8.9889-2.5501 1.7662-3.1638 0.61409-7.2222-2.5505-8.9879-3.7795-2.1086-12.974 0.19313-16.229 1.891"></path><path id="path6004" d="m238.55 454.76c1.897-5.2499 7.9852-15.445 8.6306-20.229 0.77574-5.7462-3.3173-11.114-9.064-11.89-5.7466-0.77525-11.115 3.3172-11.891 9.0631-0.92638 6.8622 7.8892 19.203 12.325 23.056"></path><path id="path6006" d="m272.57 470.17c-0.80012-4.5819-0.61559-14.474-2.1281-18.201-1.8165-4.4766-6.998-6.6664-11.475-4.8504-4.4769 1.8166-6.6673 6.9972-4.8503 11.474 2.1691 5.3461 13.651 10.625 18.453 11.577"></path></g><g fill="#269e59"><path id="path6008" d="m274.07 348.03c3.0448 1.9369 8.6206 7.2146 11.549 8.2964 3.5166 1.299 7.4817-0.52625 8.7805-4.0426 1.2992-3.516-0.52583-7.4809-4.0423-8.7799-4.2006-1.5516-13.23 2.2705-16.287 4.5261"></path><path id="path6010" d="m282.55 364.02c4.4145 1.5668 12.999 6.6262 17.016 7.1458 4.8253 0.62325 9.3114-2.8358 9.9352-7.6602 0.62371-4.8246-2.8362-9.3107-7.6621-9.934-5.7629-0.7445-16.077 6.7089-19.289 10.448"></path><path id="path6012" d="m298.61 397.27c3.9879-2.4584 13.311-5.9765 16.232-8.7817 3.5095-3.3694 3.625-9.0326 0.25554-12.542-3.3701-3.5096-9.0343-3.6245-12.544-0.25513-4.192 4.0238-4.8462 16.732-3.9443 21.578"></path><path id="path6014" d="m321.34 404.76c1.6376-4.388 6.8353-12.889 7.4189-16.897 0.7006-4.814-2.6865-9.3544-7.5012-10.056-4.8149-0.7005-9.3563 2.6859-10.057 7.5005-0.83749 5.7494 6.4504 16.181 10.139 19.452"></path><path id="path6016" d="m346.94 393.56c-3.8819-0.67037-12.259-0.49925-15.419-1.7738-3.7933-1.5315-5.6566-5.9152-4.125-9.7084 1.5317-3.7941 5.9157-5.6561 9.7101-4.1248 4.5314 1.8288 9.0204 11.542 9.8336 15.607"></path><path id="path6018" d="m348.23 361.12c-3.1844 1.7366-9.1313 6.6522-12.14 7.5395-3.6135 1.0644-7.4653-1.0332-8.531-4.6458-1.0653-3.613 1.0326-7.4646 4.6466-8.5301 4.3156-1.2724 13.111 3.1688 16.024 5.6364"></path><path id="path6020" d="m356.86 384.46c-2.767-0.95625-8.9321-1.8344-11.096-3.1471-2.5998-1.5775-3.4407-5.0162-1.863-7.6146 1.5781-2.5996 5.017-3.4401 7.6157-1.863 3.1054 1.884 5.2337 9.5464 5.3436 12.625"></path><path id="path6022" d="m284.63 381.95c3.0454-3.5589 7.965-12.224 11.188-14.676 3.8723-2.9459 9.4857-2.1834 12.432 1.6881 2.9457 3.8718 2.1837 9.4846-1.6882 12.43-4.625 3.5185-17.283 2.199-21.932 0.55838"></path><path id="path6024" d="m259.29 363.52c3.6753-1.3139 10.819-5.5464 14.165-5.9871 4.0194-0.52862 7.7645 2.3446 8.2929 6.3634 0.5287 4.0192-2.345 7.7631-6.3644 8.2921-4.8008 0.63175-13.409-5.5588-16.094-8.6684"></path><path id="path6026" d="m475.72 333.55c-4.1583 2.993-11.63 10.928-15.691 12.7-4.8781 2.1285-10.646-0.13562-12.775-5.0128-2.128-4.8772 0.13639-10.645 5.0141-12.773 5.8257-2.5416 18.935 2.1384 23.452 5.0861"></path><path id="path6028" d="m465 356.9c-6.1282 2.5799-17.882 10.451-23.533 11.514-6.7882 1.277-13.429-3.2588-14.706-10.047-1.2776-6.7865 3.26-13.426 10.047-14.703 8.1075-1.5248 23.333 8.1968 28.191 13.236"></path><path id="path6030" d="m444.96 405.34c-5.8516-3.1588-19.352-7.3845-23.721-11.122-5.2494-4.489-5.8742-12.506-1.3846-17.754 4.4896-5.2484 12.507-5.873 17.756-1.3844 6.269 5.3618 8.2327 23.318 7.3495 30.26"></path><path id="path6032" d="m413.35 417.81c-2.6791-6.0862-10.738-17.71-11.892-23.343-1.3863-6.7655 3.0431-13.476 9.8093-14.862 6.7668-1.3861 13.479 3.0434 14.865 9.8086 1.6552 8.0805-7.8224 23.458-12.783 28.396"></path><path id="path6034" d="m376.16 404.03c5.446-1.2671 17.333-1.7068 21.706-3.7711 5.2522-2.4804 7.5344-8.8445 5.0548-14.096-2.48-5.2515-8.8458-7.5334-14.099-5.0541-6.2729 2.9618-11.841 17.094-12.662 22.921"></path><path id="path6036" d="m371.69 358.15c4.6548 2.2011 13.484 8.6829 17.82 9.6941 5.2076 1.215 10.496-2.0714 11.711-7.2794 1.2144-5.2076-2.0728-10.495-7.2812-11.71-6.2196-1.4518-18.323 5.5601-22.25 9.2948"></path><path id="path6038" d="m361.36 391.93c3.8429-1.5821 12.51-3.3279 15.469-5.3656 3.5555-2.4484 4.467-7.3899 2.0197-10.945-2.4481-3.555-7.3909-4.4662-10.946-2.0185-4.2466 2.9239-6.6379 13.956-6.5423 18.329"></path><path id="path6040" d="m463.52 382.49c-4.6065-4.7948-12.284-16.674-17.053-19.887-5.7278-3.859-13.622-2.3209-17.482 3.4062-3.8596 5.7274-2.3212 13.62 3.4071 17.479 6.8412 4.6095 24.672 1.7071 31.128-0.99787"></path><path id="path6042" d="m497.92 354.29c-5.3156-1.5626-15.784-6.9782-20.562-7.3294-5.7403-0.42163-10.813 3.9558-11.234 9.6949-0.42206 5.7391 3.9561 10.811 9.6959 11.233 6.8548 0.50313 18.55-8.972 22.1-13.598"></path></g><g fill="#36b357"><path id="path6044" d="m285.87 273.87c2.7199-2.5459 7.3679-8.9656 10.131-10.622 3.3198-1.9892 7.6903-0.89513 9.6809 2.4242 1.9899 3.3187 0.89525 7.6894-2.4242 9.679-3.9646 2.3765-13.856 0.22388-17.388-1.4808"></path><path id="path6046" d="m277.77 250.98c4.6268-1.4049 13.721-6.2129 17.889-6.5561 5.0061-0.41212 9.467 3.3689 9.8798 8.3742 0.41218 5.0052-3.3697 9.4655-8.3751 9.8784-5.9791 0.4925-16.259-7.6865-19.393-11.696"></path><path id="path6048" d="m297.52 228.61c4.5151 1.732 14.645 3.5206 18.146 5.8085 4.204 2.7479 5.4029 8.471 2.6546 12.675-2.7486 4.2035-8.4722 5.4021-12.677 2.6542-5.0212-3.2818-8.1125-16.049-8.1234-21.138"></path><path id="path6050" d="m319.16 216.67c2.4997 4.1385 9.3967 11.77 10.755 15.725 1.6309 4.7499-0.93763 10.003-5.6884 11.634-4.7509 1.6306-10.005-0.93712-11.636-5.6874-1.9476-5.6739 3.4531-17.648 6.5692-21.672"></path><path id="path6052" d="m347.26 223.14c-3.8095 1.4212-12.342 2.8478-15.302 4.7449-3.5566 2.2776-4.6088 7.0812-2.3301 10.637 2.2783 3.5556 7.0822 4.6074 10.639 2.3298 4.2476-2.721 6.9455-13.433 6.9936-17.712"></path><path id="path6054" d="m354.77 255.81c-3.5619-1.153-10.534-5.0038-13.756-5.3291-3.8696-0.39013-7.3762 2.4736-7.767 6.3425-0.39056 3.8694 2.474 7.3755 6.3438 7.7659 4.6214 0.46675 12.696-5.7189 15.179-8.7792"></path></g><g fill="#52ba6e"><path id="path6056" d="m344.98 238.72c-3.2376 1.8504-10.749 4.4015-13.149 6.5559-2.8822 2.5876-3.1242 7.0905-0.53607 9.9719 2.588 2.8819 7.0911 3.1239 9.9733 0.5365 3.4421-3.0905 4.3005-13.184 3.7114-17.064"></path><path id="path6058" d="m297.69 239.63c0.78023 4.7714 0.47769 15.053 2.0082 18.944 1.8386 4.6736 7.2008 7.0084 11.875 5.1701 4.6745-1.8382 7.0092-7.199 5.1711-11.873-2.1964-5.5821-14.072-11.198-19.054-12.241"></path><path id="path6060" d="m318.86 241.93c-1.5192 4.5906-6.5522 13.561-6.9986 17.719-0.5362 4.9931 3.1331 9.546 8.1273 10.083 4.9947 0.53613 9.5477-3.1326 10.085-8.1261 0.64034-5.9641-7.2818-16.443-11.213-19.676"></path></g></g></svg> 